<?xml version="1.0" encoding="utf-8"?>
<!-- Generator: Adobe Illustrator 16.0.0, SVG Export Plug-In . SVG Version: 6.00 Build 0)  -->
<!DOCTYPE svg PUBLIC "-//W3C//DTD SVG 1.1//EN" "http://www.w3.org/Graphics/SVG/1.1/DTD/svg11.dtd">
<svg version="1.1" id="Layer_1" xmlns="http://www.w3.org/2000/svg" xmlns:xlink="http://www.w3.org/1999/xlink" x="0px" y="0px"
	 width="183px" height="120.5px" viewBox="22 99.5 183 120.5" enable-background="new 22 99.5 183 120.5" xml:space="preserve">
<g id="bubble1">
			<circle fill="#5A6AB1" cx="69.921" cy="159.872" r="9.586"/>
</g>
<g id="bubble2">
	<g>
		<g>
			<circle fill="#5A6AB1" cx="153.466" cy="159.952" r="9.586"/>
		</g>
		<g>
			<path fill="#2C1A4D" d="M153.467,150.818c-0.689,0-1.25-0.56-1.25-1.25v-35.764c0-0.689,0.561-1.25,1.25-1.25
				c0.69,0,1.25,0.561,1.25,1.25v35.764C154.717,150.26,154.158,150.818,153.467,150.818z"/>
		</g>
		<g>
			<path fill="#4354A5" d="M144.049,159.952c0,5.295,4.292,9.586,9.586,9.586v-19.17
				C148.341,150.368,144.049,154.659,144.049,159.952z"/>
		</g>
		<g>
			<path fill="#2C1A4D" d="M153.467,170.788c-5.976,0-10.837-4.86-10.837-10.836c0-5.974,4.861-10.834,10.837-10.834
				c5.975,0,10.836,4.86,10.836,10.834C164.303,165.928,159.441,170.788,153.467,170.788z M153.467,151.618
				c-4.597,0-8.337,3.737-8.337,8.334s3.74,8.336,8.337,8.336c4.596,0,8.336-3.739,8.336-8.336S158.063,151.618,153.467,151.618z"/>
		</g>
		<g>
			<path fill="#FFFFFF" d="M159.337,161.202c-0.69,0-1.25-0.56-1.25-1.25c0-2.548-2.073-4.621-4.62-4.621
				c-0.689,0-1.25-0.56-1.25-1.25s0.561-1.25,1.25-1.25c3.926,0,7.12,3.194,7.12,7.121
				C160.587,160.643,160.027,161.202,159.337,161.202z"/>
		</g>
	</g>
</g>
<path fill="#2C1A4D" d="M183.51,114.068H38.353c-1.104,0-2-0.896-2-2c0-1.104,0.896-2,2-2H183.51c1.104,0,2,0.896,2,2
	S184.613,114.068,183.51,114.068z"/>
<g>
	<g>
		<circle fill="#5A6AB1" cx="111.551" cy="159.952" r="9.586"/>
	</g>
	<g>
		<path fill="#2C1A4D" d="M111.552,150.818c-0.69,0-1.25-0.56-1.25-1.25v-35.764c0-0.689,0.56-1.25,1.25-1.25
			c0.69,0,1.25,0.561,1.25,1.25v35.764C112.802,150.26,112.243,150.818,111.552,150.818z"/>
	</g>
	<g>
		<path fill="#4354A5" d="M102.049,159.952c0,5.295,4.292,9.586,9.586,9.586v-19.17
			C106.341,150.368,102.049,154.659,102.049,159.952z"/>
	</g>
	<g>
		<path fill="#2C1A4D" d="M111.552,170.788c-5.976,0-10.838-4.86-10.838-10.836c0-5.974,4.862-10.834,10.838-10.834
			c5.975,0,10.835,4.86,10.835,10.834C122.387,165.928,117.527,170.788,111.552,170.788z M111.552,151.618
			c-4.598,0-8.338,3.737-8.338,8.334s3.74,8.336,8.338,8.336c4.596,0,8.335-3.739,8.335-8.336S116.148,151.618,111.552,151.618z"/>
	</g>
	<g>
		<path fill="#FFFFFF" d="M117.422,161.202c-0.69,0-1.25-0.56-1.25-1.25c0-2.548-2.073-4.621-4.62-4.621
			c-0.69,0-1.25-0.56-1.25-1.25s0.56-1.25,1.25-1.25c3.926,0,7.12,3.194,7.12,7.121
			C118.672,160.643,118.113,161.202,117.422,161.202z"/>
	</g>
</g>
<g>
	<g>
		<circle fill="#5A6AB1" cx="132.509" cy="159.952" r="9.586"/>
	</g>
	<g>
		<path fill="#2C1A4D" d="M132.51,150.818c-0.689,0-1.25-0.56-1.25-1.25v-35.764c0-0.689,0.561-1.25,1.25-1.25
			c0.69,0,1.25,0.561,1.25,1.25v35.764C133.76,150.26,133.201,150.818,132.51,150.818z"/>
	</g>
	<g>
		<path fill="#4354A5" d="M123.049,159.952c0,5.295,4.292,9.586,9.586,9.586v-19.17
			C127.341,150.368,123.049,154.659,123.049,159.952z"/>
	</g>
	<g>
		<path fill="#2C1A4D" d="M132.51,170.788c-5.976,0-10.838-4.86-10.838-10.836c0-5.974,4.862-10.834,10.838-10.834
			c5.975,0,10.836,4.86,10.836,10.834C143.346,165.928,138.484,170.788,132.51,170.788z M132.51,151.618
			c-4.598,0-8.338,3.737-8.338,8.334s3.74,8.336,8.338,8.336c4.596,0,8.336-3.739,8.336-8.336S137.105,151.618,132.51,151.618z"/>
	</g>
	<g>
		<path fill="#FFFFFF" d="M138.38,161.202c-0.69,0-1.25-0.56-1.25-1.25c0-2.548-2.073-4.621-4.62-4.621
			c-0.689,0-1.25-0.56-1.25-1.25s0.561-1.25,1.25-1.25c3.926,0,7.12,3.194,7.12,7.121C139.63,160.643,139.07,161.202,138.38,161.202
			z"/>
	</g>
</g>
<g>
	<g>
		<circle fill="#5A6AB1" cx="90.593" cy="159.952" r="9.586"/>
	</g>
	<g>
		<path fill="#2C1A4D" d="M90.594,150.818c-0.69,0-1.25-0.56-1.25-1.25v-35.764c0-0.689,0.56-1.25,1.25-1.25
			c0.69,0,1.25,0.561,1.25,1.25v35.764C91.844,150.26,91.285,150.818,90.594,150.818z"/>
	</g>
	<g>
		<path fill="#4354A5" d="M81.049,159.952c0,5.295,4.292,9.586,9.586,9.586v-19.17C85.341,150.368,81.049,154.659,81.049,159.952z"
			/>
	</g>
	<g>
		<path fill="#FFFFFF" d="M96.464,161.202c-0.69,0-1.25-0.56-1.25-1.25c0-2.548-2.073-4.621-4.62-4.621c-0.69,0-1.25-0.56-1.25-1.25
			s0.56-1.25,1.25-1.25c3.926,0,7.12,3.194,7.12,7.121C97.714,160.643,97.155,161.202,96.464,161.202z"/>
	</g>
	<g>
		<path fill="#2C1A4D" d="M90.594,170.788c-5.976,0-10.838-4.86-10.838-10.836c0-5.974,4.862-10.834,10.838-10.834
			c5.975,0,10.835,4.86,10.835,10.834C101.429,165.928,96.569,170.788,90.594,170.788z M90.594,151.618
			c-4.598,0-8.338,3.737-8.338,8.334s3.74,8.336,8.338,8.336c4.596,0,8.335-3.739,8.335-8.336S95.19,151.618,90.594,151.618z"/>
	</g>
</g>
<path fill="#2C1A4D" d="M41.694,185.919c-0.69,0-1.25-0.56-1.25-1.25v-72.021c0-0.69,0.56-1.25,1.25-1.25s1.25,0.56,1.25,1.25
	v72.021C42.944,185.359,42.384,185.919,41.694,185.919z"/>
<path fill="#2C1A4D" d="M180.594,185.919c-0.689,0-1.25-0.56-1.25-1.25v-72.021c0-0.69,0.561-1.25,1.25-1.25
	c0.69,0,1.25,0.56,1.25,1.25v72.021C181.844,185.359,181.284,185.919,180.594,185.919z"/>
<path fill="#2C1A4D" d="M44.428,209.507c-1.381,0-2.5-1.118-2.5-2.5v-5.584c0-1.381,1.119-2.5,2.5-2.5c1.381,0,2.5,1.119,2.5,2.5
	v5.584C46.928,208.389,45.809,209.507,44.428,209.507z"/>
<path fill="#2C1A4D" d="M179.08,209.507c-1.381,0-2.5-1.118-2.5-2.5v-5.584c0-1.381,1.119-2.5,2.5-2.5s2.5,1.119,2.5,2.5v5.584
	C181.58,208.389,180.461,209.507,179.08,209.507z"/>
<g opacity="0.3">
	<path fill="#154DF9" d="M43.916,185.909c-2.731,0-4.964,2.233-4.964,4.965v4.965c0,2.729,2.232,4.964,4.964,4.964h67.637v-14.894
		H43.916z"/>
</g>
<g opacity="0.3">
	<path fill="#7CB8F9" d="M111.551,185.909v14.894h67.637c2.732,0,4.965-2.234,4.965-4.964v-4.965c0-2.731-2.232-4.965-4.965-4.965
		H111.551z"/>
</g>
<path fill="#2C1A4D" d="M179.188,202.053H43.916c-3.426,0-6.214-2.787-6.214-6.214v-4.965c0-3.427,2.788-6.215,6.214-6.215h135.271
	c3.426,0,6.213,2.788,6.213,6.215v4.965C185.4,199.266,182.613,202.053,179.188,202.053z M43.916,187.159
	c-2.048,0-3.714,1.666-3.714,3.715v4.965c0,2.048,1.666,3.714,3.714,3.714h135.271c2.047,0,3.713-1.666,3.713-3.714v-4.965
	c0-2.049-1.666-3.715-3.713-3.715H43.916z"/>
<path fill="#85B5E1" d="M111.479,196.958H45.256c-2.138,0-3.462-1.799-3.462-3.465v-2.33c0-0.828,0.671-1.5,1.5-1.5
	s1.5,0.672,1.5,1.5v2.33c0.001,0.017,0.025,0.465,0.462,0.465h66.223c0.829,0,1.5,0.672,1.5,1.5S112.308,196.958,111.479,196.958z"
	/>
<path fill="#415EAB" d="M167.217,196.958h-48.742c-0.829,0-1.5-0.672-1.5-1.5s0.671-1.5,1.5-1.5h48.742c0.828,0,1.5,0.672,1.5,1.5
	S168.045,196.958,167.217,196.958z"/>
<path fill="#FFFFFF" d="M180.15,197.339c-0.828,0-1.5-0.672-1.5-1.5v-2.528c0-1.899-0.104-1.899-2.793-1.899h-3.306
	c-0.827,0-1.5-0.672-1.5-1.5s0.673-1.5,1.5-1.5h3.306c2.58,0,5.793,0,5.793,4.899v2.528
	C181.65,196.667,180.979,197.339,180.15,197.339z"/>
<g id="cecxli">
</g>
</svg>
